<svg width="127" height="29" viewBox="0 0 127 29" fill="none" xmlns="http://www.w3.org/2000/svg">
<path d="M52.5634 9.33245C49.2545 9.32762 45.9456 9.32761 42.6367 9.32278C42.547 9.30344 42.4931 9.25511 42.4752 9.17777C42.4752 8.11921 42.4752 7.05581 42.4812 5.99725C42.547 5.76523 42.7744 5.80391 42.9718 5.80391C48.4348 5.80391 53.8977 5.80391 59.3606 5.80391C59.4803 5.80391 59.612 5.77491 59.6897 5.88124L59.6598 5.85708C59.8872 6.43712 59.7017 7.03165 59.7556 7.62135C59.7436 7.74702 59.6718 7.84853 59.5461 7.92103L59.5581 7.91137C59.5461 7.96937 59.4923 7.99837 59.4444 8.03221L59.4504 8.02737C59.3606 8.12404 59.3188 8.24971 59.1811 8.32221L59.1931 8.30771C59.1811 8.36572 59.1273 8.39955 59.0734 8.42855L59.0794 8.42373C58.9897 8.52524 58.9478 8.6509 58.8042 8.71857L58.8221 8.70407C58.8102 8.76208 58.7623 8.79591 58.7025 8.82491L58.7084 8.82008C58.6187 8.92158 58.5768 9.04726 58.4332 9.11493L58.4512 9.10043C58.4392 9.15844 58.3913 9.19227 58.3315 9.22127L58.3375 9.21644C58.3076 9.25994 58.2597 9.28894 58.2298 9.32761L58.2238 9.33245C58.14 9.37595 58.1759 9.48713 58.0622 9.51129L58.0802 9.49679C58.0742 9.55963 58.0203 9.58863 57.9605 9.61763L57.9665 9.60796C57.9426 9.65146 57.8887 9.68047 57.8588 9.71914V9.72397C57.775 9.76748 57.8109 9.87865 57.6972 9.90281L57.7152 9.88831C57.7092 9.95115 57.6554 9.98015 57.5955 10.0092L57.6015 9.99948C57.5776 10.043 57.5237 10.0768 57.4878 10.1155V10.1203C57.404 10.1638 57.4399 10.2798 57.3203 10.2992L57.3382 10.2847C57.3322 10.3475 57.2784 10.3813 57.2186 10.4103L57.2245 10.4007C57.2006 10.449 57.1527 10.478 57.1109 10.5167C57.0271 10.5602 57.069 10.6762 56.9433 10.6955L56.9613 10.681C56.9553 10.7439 56.9014 10.7777 56.8416 10.8067L56.8536 10.797C56.8296 10.8454 56.7817 10.8744 56.7399 10.913C56.6621 10.9565 56.698 11.0725 56.5723 11.0919L56.5903 11.0774C56.5903 11.1402 56.5364 11.1741 56.4706 11.2031L56.4826 11.1934C56.4586 11.2417 56.4108 11.2707 56.3689 11.3094C56.2911 11.3577 56.327 11.4689 56.2014 11.4882L56.2193 11.4737C56.2193 11.5414 56.1655 11.5704 56.0996 11.5994L56.1116 11.5897C56.0877 11.6381 56.0398 11.6719 55.9979 11.7057C55.9201 11.7541 55.956 11.8701 55.8304 11.8846L55.8483 11.8701C55.8483 11.9378 55.7945 11.9716 55.7287 11.9958L55.7406 11.9861C55.7167 12.0344 55.6688 12.0683 55.6269 12.1021C55.5312 12.1939 55.4833 12.3196 55.3577 12.3921L55.3697 12.3825C55.3517 12.4308 55.2978 12.4646 55.256 12.4985C55.1602 12.5903 55.1124 12.716 54.9867 12.7885L54.9987 12.7788C54.9807 12.832 54.9329 12.861 54.885 12.8948C54.7893 12.9867 54.7474 13.1123 54.6157 13.1848L54.6277 13.1752C54.6097 13.2283 54.5619 13.2622 54.514 13.2912C54.4183 13.3878 54.3764 13.5135 54.2447 13.586L54.2567 13.5764C54.2388 13.6295 54.1909 13.6634 54.143 13.6972V13.6924C54.0473 13.789 54.0054 13.9147 53.8738 13.9872L53.8857 13.9727C53.8678 14.0259 53.8199 14.0597 53.772 14.0935V14.0887C53.6823 14.1854 53.6344 14.3111 53.5028 14.3836L53.5148 14.3691C53.5028 14.4222 53.4489 14.4561 53.4011 14.4899L53.4071 14.4851C53.3173 14.5817 53.2754 14.7074 53.1378 14.7799L53.1498 14.7654C53.1378 14.8234 53.0839 14.8524 53.0301 14.8863L53.0361 14.8814C52.9463 14.9829 52.9044 15.1086 52.7608 15.1763L52.7788 15.1618C52.7668 15.2198 52.719 15.2536 52.6591 15.2826L52.6651 15.2778C52.5753 15.3793 52.5335 15.505 52.3899 15.5726L52.4078 15.5581C52.3958 15.6161 52.348 15.65 52.2881 15.679L52.2941 15.6742C52.2103 15.7757 52.1625 15.9013 52.0189 15.969L52.0368 15.9545C52.0308 16.0125 51.977 16.0463 51.9172 16.0753L51.9231 16.0657C51.8932 16.1092 51.8454 16.1382 51.8154 16.1768L51.8095 16.1817C51.7257 16.2252 51.7616 16.3363 51.6479 16.3605L51.6659 16.346C51.6599 16.4089 51.606 16.4379 51.5462 16.4669L51.5522 16.4572C51.5282 16.5007 51.4744 16.5297 51.4385 16.5684V16.5732C51.3547 16.6167 51.3906 16.7327 51.2769 16.752L51.2949 16.7375C51.2889 16.8004 51.235 16.8342 51.1752 16.8632L51.1812 16.8536C51.1573 16.8971 51.1094 16.9309 51.0675 16.9696V16.9744C50.9837 17.0179 51.0196 17.1339 50.9 17.1532L50.9179 17.1387C50.9119 17.2016 50.8581 17.2354 50.7982 17.2644L50.8102 17.2547C50.7863 17.3031 50.7384 17.3321 50.6965 17.3707C50.6187 17.4142 50.6546 17.5303 50.529 17.5496L50.5469 17.5351C50.5469 17.5979 50.4931 17.6318 50.4273 17.6608L50.4392 17.6511C50.4153 17.6994 50.3674 17.7284 50.3255 17.7671C50.2478 17.8106 50.2837 17.9266 50.158 17.9459L50.176 17.9314C50.176 17.9991 50.1221 18.0281 50.0563 18.0571L50.0683 18.0475C50.0443 18.0958 49.9964 18.1296 49.9546 18.1635C49.8768 18.2118 49.9127 18.3278 49.787 18.3423L49.805 18.3278C49.805 18.3955 49.7511 18.4245 49.6853 18.4535L49.6973 18.4438C49.6733 18.4921 49.6255 18.526 49.5836 18.5598C49.5058 18.6082 49.5417 18.7242 49.4161 18.7387L49.434 18.7242C49.44 18.7918 49.3802 18.8257 49.3143 18.8498L49.3263 18.8402C49.3024 18.8885 49.2545 18.9223 49.2126 18.9562C49.0929 19.2462 49.3562 19.2027 49.5477 19.2027C50.0383 19.2075 50.529 19.2027 51.0196 19.2027C53.6823 19.2027 56.345 19.2027 59.0076 19.2027C59.229 19.2027 59.4504 19.1833 59.7316 19.2462C59.7376 20.3724 59.7376 21.489 59.7316 22.6781C53.8199 22.6781 47.9501 22.6781 42.0803 22.6781C41.823 22.6249 41.8948 22.446 41.8888 22.3107C41.8828 21.9143 41.8828 21.5131 41.8828 21.1168C41.8828 21.0636 41.8828 21.0153 41.8828 20.9621C41.8828 20.8896 41.8948 20.8171 41.9307 20.7494C41.9546 20.7108 41.9786 20.6673 42.0025 20.6286C42.0324 20.5899 42.0563 20.5561 42.0922 20.5223C42.1102 20.5078 42.1281 20.4933 42.1461 20.4788C42.2239 20.4304 42.3136 20.3918 42.3615 20.3144C42.3735 20.2758 42.3914 20.2419 42.4094 20.2032C42.4333 20.1694 42.4632 20.1404 42.5051 20.1162C42.5231 20.1066 42.547 20.0969 42.5649 20.0872C42.6367 20.0389 42.6966 19.9761 42.7325 19.9084C42.7444 19.8697 42.7624 19.8359 42.7803 19.802C42.8043 19.7682 42.8342 19.7441 42.8761 19.7199C42.894 19.7102 42.918 19.7006 42.9359 19.6909C43.0077 19.6425 43.0676 19.5845 43.1035 19.512C43.1154 19.4734 43.1274 19.4395 43.1513 19.4057C43.1752 19.3719 43.2052 19.3477 43.2471 19.3235C43.265 19.3139 43.2889 19.3042 43.3069 19.2945C43.3787 19.2462 43.4385 19.1882 43.4744 19.1157C43.4864 19.077 43.4984 19.0432 43.5223 19.0093C43.5402 18.9755 43.5642 18.9417 43.5941 18.9127C43.612 18.8982 43.63 18.8885 43.648 18.874C43.7257 18.8305 43.8035 18.7918 43.8454 18.7145C43.8574 18.6758 43.8693 18.642 43.8933 18.6081C43.9112 18.5743 43.9352 18.5405 43.9651 18.5115C43.983 18.497 44.001 18.4873 44.0189 18.4728C44.0967 18.4293 44.1745 18.3906 44.2164 18.3181C44.2283 18.2795 44.2463 18.2456 44.2643 18.2118C44.2822 18.178 44.3061 18.1441 44.3361 18.1151C44.354 18.1006 44.372 18.091 44.3899 18.0765C44.4677 18.033 44.5455 17.9943 44.5874 17.9218C44.5993 17.8831 44.6173 17.8493 44.6352 17.8154C44.6532 17.7816 44.6771 17.7478 44.707 17.7188C44.725 17.7043 44.7429 17.6946 44.7609 17.6801C44.8387 17.6366 44.9165 17.5979 44.9583 17.5254C44.9703 17.4867 44.9883 17.4529 45.0062 17.4191C45.0242 17.3852 45.0541 17.3514 45.078 17.3224C45.096 17.3079 45.1139 17.2982 45.1319 17.2837C45.2096 17.2402 45.2874 17.2016 45.3293 17.1291C45.3413 17.0904 45.3592 17.0566 45.3772 17.0227C45.3951 16.9889 45.425 16.9551 45.449 16.9261C45.4669 16.9116 45.4849 16.9019 45.5028 16.8874C45.5806 16.8439 45.6584 16.8052 45.7003 16.7327C45.7123 16.694 45.7302 16.6602 45.7482 16.6264C45.7661 16.5925 45.796 16.5587 45.82 16.5297C45.8379 16.5152 45.8559 16.5055 45.8738 16.491C45.9516 16.4475 46.0294 16.4089 46.0713 16.3364C46.0832 16.2977 46.0952 16.2638 46.1191 16.23C46.1371 16.1962 46.161 16.1623 46.1909 16.1333C46.2089 16.1188 46.2268 16.1092 46.2448 16.0947C46.3226 16.0512 46.4004 16.0125 46.4422 15.94C46.4542 15.9013 46.4662 15.8675 46.4901 15.8337C46.5081 15.7998 46.532 15.766 46.5619 15.737C46.5799 15.7225 46.5978 15.7128 46.6158 15.6983C46.6936 15.6548 46.7713 15.6161 46.8132 15.5436C46.8252 15.5098 46.8372 15.4711 46.8551 15.4373C46.8731 15.4035 46.897 15.3745 46.9269 15.3406C46.9449 15.3261 46.9568 15.3165 46.9748 15.302C47.0466 15.2585 47.1244 15.2295 47.1722 15.1618C47.1842 15.128 47.1962 15.0941 47.2081 15.0603C47.2261 15.0313 47.244 14.9974 47.262 14.9684C47.274 14.9539 47.2859 14.9394 47.2979 14.9298C47.3218 14.9056 47.3517 14.8766 47.3757 14.8524L47.4176 14.8138C47.4535 14.7751 47.5073 14.7461 47.5372 14.7026C47.5552 14.6736 47.5731 14.6446 47.5971 14.6204C47.615 14.5914 47.639 14.5624 47.6629 14.5382C47.6629 14.5382 47.7048 14.4996 47.6988 14.4996C47.7227 14.4754 47.7467 14.4464 47.7766 14.4222C47.7766 14.4222 47.8185 14.3884 47.8185 14.3836C47.8484 14.3642 47.8783 14.3401 47.8962 14.3111C47.9142 14.2821 47.9381 14.2531 47.9621 14.2241C47.98 14.1951 48.0039 14.1661 48.0279 14.1371C48.0398 14.1226 48.0518 14.1129 48.0638 14.0984C48.0877 14.0694 48.1176 14.0452 48.1416 14.021C48.1535 14.0065 48.1715 13.9969 48.1834 13.9824C48.2134 13.9582 48.2433 13.9341 48.2672 13.9099C48.2912 13.8809 48.3151 13.8567 48.345 13.8277C48.3749 13.8035 48.3989 13.7745 48.4228 13.7455C48.4348 13.731 48.4467 13.7165 48.4587 13.702C48.4826 13.673 48.5066 13.644 48.5365 13.6199C48.5544 13.6054 48.5664 13.5957 48.5844 13.5812C48.6382 13.5474 48.6801 13.5087 48.7519 13.4942L48.7459 13.499C48.7579 13.4604 48.7698 13.4217 48.7878 13.3878C48.7998 13.3685 48.8117 13.354 48.8177 13.3347C48.8416 13.3008 48.8775 13.2718 48.9134 13.2477C48.9314 13.238 48.9553 13.2235 48.9733 13.2138C49.0271 13.1752 49.0451 13.1075 49.1229 13.093L49.1049 13.1027C49.1109 13.0398 49.1647 13.0108 49.2246 12.9818L49.2186 12.9867C49.2485 12.9383 49.2784 12.89 49.3203 12.8465C49.3861 12.803 49.3921 12.716 49.4938 12.6918L49.4759 12.7015C49.4819 12.6386 49.5357 12.6048 49.5956 12.5758L49.5896 12.5806C49.6195 12.5323 49.6494 12.484 49.6913 12.4405C49.7571 12.397 49.7631 12.3051 49.8648 12.2858L49.8469 12.2954C49.8528 12.2326 49.9067 12.1988 49.9665 12.1698L49.9606 12.1746C49.9905 12.1263 50.0204 12.0779 50.0623 12.0344C50.1281 11.9909 50.1341 11.8991 50.2358 11.8798L50.2178 11.8894C50.2238 11.8266 50.2777 11.7928 50.3375 11.7638L50.3315 11.7686C50.3614 11.7202 50.3914 11.6719 50.4333 11.6284C50.4991 11.5849 50.505 11.4931 50.6068 11.4737L50.5948 11.4786C50.6008 11.4399 50.6128 11.4012 50.6307 11.3674C50.6427 11.3481 50.6487 11.3336 50.6606 11.3142C50.6846 11.2804 50.7085 11.2466 50.7384 11.2176C50.7564 11.2031 50.7743 11.1886 50.7923 11.1741C50.8461 11.1354 50.9 11.0967 50.9718 11.0774L50.9658 11.0822C50.9718 11.0435 50.9837 11.0049 51.0017 10.971C51.0136 10.9517 51.0196 10.9372 51.0316 10.9179C51.0555 10.884 51.0795 10.8502 51.1094 10.8164C51.1273 10.8019 51.1453 10.7874 51.1632 10.7729C51.2171 10.7342 51.2709 10.6955 51.3427 10.681L51.3188 10.6665L51.3427 10.6859C51.3487 10.6472 51.3607 10.6085 51.3786 10.5747C51.3906 10.5553 51.3966 10.5409 51.4086 10.5215C51.4325 10.4877 51.4564 10.4539 51.4863 10.42C51.5043 10.4055 51.5223 10.391 51.5402 10.3765C51.5941 10.3378 51.6479 10.2992 51.7197 10.2847L51.6958 10.2653L51.7197 10.2847C51.7257 10.246 51.7377 10.2073 51.7556 10.1735C51.7676 10.1542 51.7735 10.1397 51.7855 10.1203C51.8095 10.0865 51.8334 10.0527 51.8633 10.0188C51.8813 10.0043 51.8992 9.98982 51.9172 9.97532C51.971 9.93665 52.0249 9.89798 52.0967 9.88348L52.0667 9.86414L52.0907 9.88348C52.0907 9.84964 52.1026 9.81097 52.1206 9.77714C52.1266 9.76264 52.1385 9.7433 52.1445 9.7288C52.1685 9.6998 52.1924 9.6708 52.2283 9.64663C52.2463 9.63697 52.2642 9.6273 52.2822 9.61763C52.3659 9.58863 52.3719 9.49196 52.4676 9.48229L52.4497 9.49195C52.4497 9.42428 52.5035 9.39528 52.5694 9.36628L52.5634 9.37111C52.6113 9.40495 52.6053 9.36629 52.5634 9.33245Z" fill="#1A88E1"/>
<path d="M111.293 22.4043C111.293 19.1851 111.293 15.9611 111.293 12.7419C111.365 12.5486 111.562 12.5679 111.742 12.5679C116.726 12.5679 121.71 12.5679 126.695 12.5679C126.784 12.5679 126.856 12.5873 126.91 12.6453L126.886 12.6259C127.066 12.7613 126.976 12.9401 126.976 13.0948C126.988 13.9068 126.988 14.7189 126.976 15.5261C126.976 15.6808 127.066 15.8596 126.886 15.995L126.91 15.9708C126.718 16.1206 126.479 16.0433 126.27 16.0433C123.11 16.0481 119.951 16.0481 116.792 16.0481C116.57 16.0481 116.343 16.0191 116.026 16.1013C116.056 17.0438 115.948 18.0057 116.092 18.9725L116.098 18.9773C116.307 19.0788 116.54 19.0256 116.762 19.0305C119.921 19.0353 123.08 19.0305 126.24 19.0353C126.461 19.0353 126.689 19.0208 126.976 19.0691C127 20.205 126.982 21.3361 126.988 22.4382C126.742 22.5397 126.551 22.5107 126.371 22.5107C121.531 22.5107 116.69 22.5155 111.849 22.5058C111.658 22.5058 111.425 22.6073 111.293 22.4043Z" fill="#1A88E1"/>
<path d="M111.293 11.366C111.293 9.73221 111.293 8.09362 111.293 6.45986C111.371 6.27135 111.562 6.28584 111.748 6.28584C116.744 6.28584 121.734 6.28101 126.73 6.28584C126.796 6.28584 126.85 6.31002 126.904 6.32936C127.066 7.31058 126.94 8.29179 126.964 9.27785C126.97 9.45186 127.095 9.66938 126.838 9.81439C123.248 9.78539 119.664 9.73704 116.074 9.83855C115.918 10.3509 116.092 10.8826 115.972 11.4191C115.422 11.5062 114.877 11.4481 114.339 11.4578C113.483 11.4675 112.627 11.4675 111.778 11.4578C111.622 11.453 111.419 11.5351 111.293 11.366Z" fill="#3F0A96"/>
<path d="M24.1541 3.31182C25.0157 3.97403 25.8773 4.63623 26.7389 5.30327C26.7808 5.3371 26.8227 5.37093 26.8646 5.40477C26.9843 5.51594 27.1039 5.63195 27.1757 5.77213C27.9536 7.19804 27.8698 8.65297 27.2475 10.0837C26.5534 11.6836 25.1413 12.834 23.3822 13.6944C21.0725 14.8255 18.5236 15.42 15.8848 15.7825C15.6395 15.8164 15.4062 15.8695 15.1668 15.9034C12.8991 16.1161 10.6253 16.1644 8.3516 15.9469C7.76521 15.8889 7.19079 15.7825 6.62236 15.652C6.44286 15.652 6.29327 15.5505 6.12573 15.5312C6.05393 15.5119 6.15564 15.5457 6.08384 15.5215C6.024 15.5022 6.02401 15.4974 6.06589 15.5215C6.17359 15.5457 6.28728 15.5554 6.38302 15.6085C7.75324 15.8841 9.09355 16.2611 10.4997 16.4206C10.6792 16.4399 10.8587 16.4882 11.0083 16.5849C11.2177 16.7589 11.2715 16.9909 11.3553 17.2085C11.5887 17.8272 11.834 18.441 12.2229 19.0066C13.4495 20.8095 15.5079 21.6119 17.8714 22.0082C18.9125 22.1822 19.9776 22.2403 21.0366 22.0904C24.0583 21.7086 26.5415 20.5002 28.7255 18.8326C28.9648 18.6489 29.1802 18.4507 29.4315 18.2815C29.5691 18.1897 29.7247 18.0592 29.9162 18.1413C30.1376 18.2332 30.1017 18.4217 30.0658 18.5812C29.9461 19.1902 29.7067 19.7654 29.3597 20.3116C29.24 20.5002 29.1263 20.6983 28.9648 20.8675C28.905 20.9787 28.7853 21.0463 28.6895 21.1334C28.5759 21.2252 28.4502 21.317 28.3365 21.4089C27.5168 22.1049 26.697 22.801 25.8773 23.497C25.8294 23.5405 25.8055 23.6033 25.7516 23.642C25.6798 23.7 25.614 23.7628 25.5542 23.8305C25.5243 23.8644 25.4944 23.8982 25.4585 23.932C25.4166 23.961 25.3747 23.99 25.3268 24.0142C25.1772 24.0915 25.0695 24.2124 24.896 24.2607C23.2685 25.1549 21.4555 25.6286 19.5228 25.8316C16.8003 26.1168 14.1855 25.7785 11.6605 24.9326C11.2057 24.7827 10.751 24.6281 10.374 24.3622C10.1347 24.2704 9.93722 24.1302 9.73977 23.9949C9.6919 23.9707 9.64404 23.9513 9.59617 23.9272C9.52437 23.8933 9.45854 23.8547 9.40469 23.8063C9.33289 23.7435 9.24912 23.6855 9.17133 23.6227C9.08158 23.5405 8.98584 23.4632 8.89011 23.3907C8.39946 22.9943 7.90283 22.5931 7.41218 22.1968C7.30448 22.1388 7.20875 22.0711 7.10104 22.0131C6.99334 21.9454 6.8976 21.8729 6.80187 21.8004C6.54458 21.6119 6.34113 21.3847 6.11376 21.172C4.91706 19.5963 4.31871 17.8707 4.26486 16.0387C4.24691 15.4345 4.09731 15.043 3.32544 14.8497C2.70316 14.695 2.16464 14.3615 1.64408 14.0376C1.43465 13.9071 1.2013 13.7863 1.19531 13.5349C1.22523 13.4141 1.32695 13.3561 1.46457 13.3222C2.20652 13.2642 2.85873 13.5446 3.5588 13.6606C4.30075 13.7863 4.27683 13.8008 4.40846 13.2062C5.43763 8.58529 8.59692 5.31294 13.9103 3.4085C16.2079 2.58678 18.6313 2.32093 21.1204 2.4466C21.8803 2.48527 22.6223 2.62061 23.3283 2.85746C23.4061 2.88646 23.4899 2.9203 23.5557 2.96864C23.6873 3.08464 23.8788 3.13297 24.0404 3.21514C24.0763 3.25381 24.1122 3.28282 24.1541 3.31182Z" fill="#FEFEFE"/>
<path d="M6.2656 15.4249C9.19154 15.8744 12.1414 15.8502 15.0913 15.6231C17.5326 15.4152 19.9319 15.0334 22.2655 14.4002C24.0306 13.9216 25.6642 13.2353 27.0463 12.2202C28.4585 11.181 29.344 9.90974 29.5295 8.34848C29.5534 8.12613 29.5056 7.86994 29.8227 7.7346C29.8945 7.72977 29.9483 7.74911 29.9842 7.80228L29.9723 7.7926C30.0441 7.8071 30.086 7.84577 30.1159 7.89894L30.1039 7.88928C30.1697 7.90862 30.2176 7.94729 30.2415 7.99562L30.2355 7.98596C30.2774 8.00046 30.3133 8.01495 30.3552 8.02462C30.3732 8.02946 30.3971 8.03913 30.4151 8.04396C30.4569 8.05846 30.4928 8.0778 30.5347 8.0923C30.5527 8.10197 30.5706 8.11646 30.5886 8.12612C30.6245 8.15029 30.6604 8.17446 30.6903 8.20346C30.7082 8.21796 30.7262 8.22764 30.7441 8.24214C30.78 8.26631 30.816 8.2953 30.8519 8.31947C30.8698 8.33397 30.8878 8.34848 30.9057 8.35814C30.9476 8.38714 30.9775 8.41615 31.0134 8.44998C31.0314 8.46932 31.0433 8.48381 31.0613 8.50315C31.2348 8.79316 31.5878 8.95267 31.8212 9.19919L31.8032 9.18469C31.893 9.18469 31.9349 9.22819 31.9468 9.29586L31.9289 9.28136C32.0126 9.2862 32.0545 9.32486 32.0725 9.39253L32.0545 9.37803C32.1323 9.3877 32.1742 9.42637 32.1981 9.48921L32.1802 9.47471C32.252 9.48921 32.2999 9.52788 32.3178 9.58588L32.2999 9.57621C32.3717 9.59071 32.4195 9.62938 32.4375 9.68739L32.4195 9.67289C32.4913 9.69222 32.5392 9.72605 32.5512 9.78889L32.5332 9.77439C32.611 9.78889 32.6649 9.82272 32.6649 9.89039L32.6469 9.88073C32.7546 9.9049 32.7785 9.99674 32.8683 10.0354C32.9102 10.0547 32.9521 10.0789 32.988 10.1079C33.0239 10.1369 33.0478 10.1708 33.0717 10.2046C33.0957 10.2384 33.1076 10.2771 33.1196 10.3158C33.1615 10.4076 33.2453 10.4801 33.2871 10.5719L33.2812 10.5623C33.3589 10.6009 33.3769 10.6831 33.4427 10.7314C33.4846 10.775 33.5205 10.8184 33.5145 10.8765L33.5025 10.8668C33.6282 10.9006 33.6043 11.0021 33.6402 11.0746L33.6282 11.0601C33.7479 11.1036 33.7239 11.1955 33.7598 11.2728L33.7539 11.268C33.8017 11.2728 33.8376 11.2921 33.8616 11.326C33.8975 11.3743 33.9154 11.4275 33.9334 11.4758C33.9513 11.5097 33.9752 11.5435 33.9932 11.5725C34.0351 11.6402 34.1009 11.6933 34.1308 11.7658C34.1428 11.8045 34.1428 11.8383 34.1428 11.877C34.1548 11.9689 34.0471 12.0559 34.1428 12.1477V12.1429C34.2804 12.2589 34.1428 12.428 34.2624 12.5489V12.5441C34.418 12.7471 34.2625 12.9839 34.3821 13.1918L34.3582 13.2159L34.3821 13.2401C34.4719 13.3029 34.4659 13.3851 34.4599 13.4721C34.424 13.6606 34.5257 13.8588 34.3941 14.0376C34.3941 14.086 34.3881 14.1391 34.3881 14.1875C34.2625 14.3905 34.43 14.6322 34.2684 14.8303L34.2385 14.8497L34.2565 14.8739C34.1907 14.985 34.2505 15.1204 34.1488 15.2219L34.1188 15.246L34.1308 15.275C34.053 15.3814 34.1488 15.5312 33.9992 15.6134L34.0052 15.5989C33.9633 15.6714 33.9753 15.7536 33.9035 15.8164C33.7838 15.8889 33.9094 16.0484 33.7539 16.1064L33.7658 16.0919C33.7239 16.1644 33.7419 16.2563 33.6402 16.3046L33.6461 16.2949C33.5983 16.3626 33.6222 16.4641 33.5085 16.5028L33.5205 16.4931C33.4726 16.6139 33.3889 16.7155 33.2871 16.8073L33.2931 16.8025C33.2273 16.8605 33.2632 16.9716 33.1316 16.991L33.1495 16.9765C33.1495 17.0393 33.0957 17.0731 33.0358 17.1021L33.0418 17.0925C33.0179 17.136 32.97 17.1698 32.9281 17.2085V17.2133C32.8204 17.2955 32.7905 17.4308 32.6469 17.4937L32.6649 17.4792C32.6469 17.5372 32.599 17.5758 32.5332 17.5952L32.5452 17.5855C32.5212 17.6387 32.4734 17.6725 32.4135 17.6967L32.4255 17.687C32.3956 17.7353 32.3537 17.7692 32.2939 17.7982L32.2999 17.7934C32.2699 17.8369 32.2221 17.8707 32.1742 17.8997L32.1802 17.8949C32.1443 17.9384 32.1024 17.9722 32.0545 18.0012L32.0605 17.9964C32.0246 18.035 31.9827 18.0689 31.9408 18.1027C31.899 18.1365 31.8571 18.1704 31.8212 18.2042C31.5579 18.4894 31.2288 18.7262 30.9177 18.9776L30.9356 18.9631C30.9296 19.0308 30.8818 19.0694 30.798 19.0791L30.8159 19.0646C30.804 19.1274 30.7561 19.1661 30.6783 19.1806L30.6963 19.1661C30.6783 19.2241 30.6305 19.2628 30.5587 19.2821L30.5706 19.2724C30.5527 19.3304 30.5048 19.3643 30.439 19.3836L30.451 19.374C30.427 19.4271 30.3791 19.4609 30.3193 19.4851L30.3313 19.4755C30.3014 19.5238 30.2595 19.5625 30.1996 19.5866L30.2116 19.577C30.1817 19.6205 30.1338 19.6591 30.086 19.6833L30.0919 19.6785C30.062 19.722 30.0142 19.7558 29.9663 19.7848L29.9723 19.78C29.9364 19.8186 29.8945 19.8525 29.8466 19.8863C29.8107 19.9201 29.7629 19.954 29.727 19.9878C29.4637 20.2778 29.1406 20.5147 28.8234 20.7612L28.8354 20.7467C28.8234 20.795 28.7875 20.824 28.7277 20.8337C28.6679 20.8337 28.62 20.8192 28.5781 20.7854C29.1585 19.9298 29.6013 19.0404 29.7389 17.9384C27.2019 20.0797 24.4495 21.7086 20.8295 22.0953C18.7532 22.1339 17.024 21.4282 15.4802 20.389C14.2835 19.5818 13.6852 18.4797 13.2663 17.3003C13.0509 16.6913 13.0389 16.6961 12.2551 16.672C11.7585 16.6526 11.2259 16.7928 10.7652 16.5124C9.11974 16.3384 7.52214 16.0098 5.98438 15.4926C6.00831 15.3331 6.14593 15.3959 6.2656 15.4249Z" fill="#1A88E1"/>
<path d="M23.3716 2.95758C15.5033 1.11114 6.61178 5.55324 4.80476 12.2381C4.65517 12.7843 4.55943 13.3402 4.42779 13.9492C3.43453 13.751 2.47119 13.5577 1.50784 13.3643C1.37621 13.3498 1.19071 13.2628 1.22063 13.49C1.98053 14.0894 2.88405 14.5003 3.86535 14.8048C4.27821 14.9304 4.41583 15.1093 4.41583 15.4573C4.42181 17.4777 5.02016 19.3774 6.29465 21.1271C6.33055 21.2141 6.27072 21.2576 6.18096 21.2866C6.11515 21.2866 6.07326 21.2625 6.04335 21.2141L6.05531 21.2286C5.98949 21.2093 5.94162 21.1706 5.91769 21.1175L5.92966 21.1271C5.86384 21.1078 5.82195 21.0691 5.79203 21.0208L5.804 21.0305C5.74417 21.0063 5.70228 20.9725 5.66638 20.9241L5.67835 20.9338C5.6245 20.9096 5.57663 20.871 5.54671 20.8274L5.55269 20.8323C5.49884 20.8033 5.45696 20.7694 5.42106 20.7308L5.42705 20.7356C5.37918 20.7066 5.33729 20.6728 5.29541 20.6341L5.30139 20.6389C5.25352 20.6099 5.21761 20.5761 5.17573 20.5423C5.13385 20.5084 5.09795 20.4746 5.05008 20.4456C5.01418 20.4118 4.9723 20.3779 4.93041 20.3538L4.92442 20.3489C4.61926 20.1604 4.36198 19.9332 4.08674 19.7205L4.10469 19.735C4.0269 19.7205 3.98501 19.6819 3.96108 19.6239L3.97903 19.6384C3.90723 19.6239 3.85936 19.5852 3.83543 19.5272L3.85338 19.5417C3.78158 19.5224 3.7397 19.4789 3.71576 19.4257C2.56693 18.488 1.29842 17.6324 0.658187 16.366C0.502615 16.2983 0.616299 16.1485 0.514579 16.0615L0.520559 16.0663C0.406873 15.9938 0.472695 15.8488 0.347041 15.7812C0.323107 15.7425 0.317122 15.699 0.317122 15.6555C0.323106 15.5443 0.323105 15.438 0.269253 15.3316C0.293187 15.3075 0.287201 15.2881 0.257283 15.2736C0.0957285 15.0416 0.275242 14.7758 0.143604 14.5438C0.167538 14.5196 0.167538 14.5002 0.143604 14.4761C-0.0478681 14.2779 -0.0478681 14.0749 0.143604 13.8767C0.167538 13.8574 0.173522 13.838 0.143604 13.8139C0.275242 13.5819 0.0957344 13.3112 0.263273 13.084L0.257283 13.0888C0.382937 12.968 0.23934 12.7988 0.376961 12.6828C0.406878 12.6683 0.412855 12.649 0.388921 12.6296C0.466707 12.5233 0.370972 12.3783 0.520559 12.2913L0.514579 12.3058C0.562447 12.2381 0.550476 12.1511 0.622278 12.0883C0.741948 12.0158 0.622281 11.8611 0.765885 11.7934L0.759905 11.8031C0.807773 11.7354 0.789818 11.6436 0.885554 11.5904L0.879574 11.6001C0.933425 11.5372 0.915475 11.4406 1.01121 11.3922L1.00522 11.4019C1.05907 11.3342 1.03514 11.2327 1.14883 11.1989L1.13088 11.2134C1.14285 11.1554 1.19072 11.1264 1.23859 11.0877C1.28646 11.0442 1.29841 10.9862 1.3044 10.9282C1.31636 10.8895 1.3403 10.8557 1.37022 10.8267C1.40013 10.7977 1.43604 10.7735 1.47194 10.7445C1.48989 10.73 1.50784 10.7204 1.52579 10.7059C1.61555 10.643 1.65743 10.5464 1.76513 10.4932L1.74718 10.5028C1.76513 10.4448 1.813 10.411 1.87284 10.3868L1.86087 10.3917C1.8848 10.3627 1.90275 10.3288 1.91472 10.295C1.9207 10.2805 1.93267 10.2612 1.93866 10.2467C1.95661 10.2128 1.98054 10.1838 1.99849 10.15C2.01045 10.1355 2.02841 10.121 2.04038 10.1065C2.07029 10.0775 2.10021 10.0485 2.13611 10.0243C2.15407 10.0098 2.16602 9.99532 2.18397 9.98082C2.21389 9.95182 2.2498 9.92282 2.2857 9.89382C2.30365 9.87932 2.3216 9.86482 2.33955 9.85032C2.37545 9.82131 2.42332 9.79714 2.4652 9.78264C2.48913 9.77297 2.51307 9.76331 2.53701 9.75364C2.80627 9.59413 2.99774 9.37661 3.23708 9.2026L3.21913 9.21711C3.2311 9.15428 3.27896 9.12043 3.35675 9.1011L3.3388 9.1156C3.35675 9.05759 3.40461 9.01893 3.47642 8.9996L3.45847 9.0141C3.4824 8.95609 3.53026 8.92225 3.59608 8.90292L3.58412 8.91259C3.60806 8.85942 3.65593 8.82558 3.71576 8.80142L3.70379 8.81108C3.73371 8.76274 3.77559 8.72408 3.83543 8.69991L3.82346 8.70474C3.84739 8.67574 3.86534 8.64191 3.87731 8.61291C3.88329 8.59841 3.89526 8.57907 3.90125 8.56457C3.9192 8.53074 3.93714 8.50174 3.96108 8.47273C3.97305 8.45823 3.991 8.44373 4.00297 8.42923C4.03288 8.40023 4.0628 8.37606 4.09272 8.35189C4.11067 8.33739 4.12263 8.32772 4.14059 8.31322C4.1705 8.28421 4.20042 8.26005 4.23632 8.23588C4.25427 8.22138 4.26624 8.20688 4.28419 8.19721C4.31411 8.16821 4.35001 8.1392 4.37993 8.11504C4.39788 8.10054 4.41583 8.08604 4.43378 8.07154C4.46968 8.04253 4.51754 8.02321 4.55943 8.00387C4.58336 7.99421 4.6073 7.98454 4.63124 7.97487C4.89451 7.81536 5.08598 7.59784 5.33131 7.42383L5.31336 7.43833C5.32532 7.3755 5.37319 7.33683 5.45098 7.32233L5.43303 7.33683C5.45098 7.27883 5.49884 7.24016 5.57064 7.22083L5.55269 7.23533C5.57064 7.17733 5.61851 7.14348 5.69031 7.11931L5.67835 7.12899C5.70229 7.07582 5.75015 7.03715 5.80999 7.01781L5.79802 7.02747C5.82195 6.9743 5.86982 6.94048 5.92966 6.91631L5.91769 6.92597C5.94761 6.87764 5.98949 6.84381 6.04933 6.81481L6.03736 6.81963C6.06129 6.79063 6.07924 6.76163 6.09121 6.72779C6.09719 6.71329 6.10916 6.69397 6.11515 6.67947C6.1331 6.64563 6.15105 6.61663 6.17498 6.58763C6.18695 6.57313 6.2049 6.55861 6.21686 6.54411C6.24678 6.51511 6.2767 6.49096 6.30661 6.46679C6.32456 6.45229 6.33653 6.44261 6.35448 6.42811C6.3844 6.39911 6.41432 6.37494 6.45022 6.35077C6.46817 6.33627 6.48014 6.32178 6.49809 6.31211C6.52801 6.28311 6.56391 6.2541 6.59383 6.22993C6.61178 6.21543 6.62973 6.20093 6.64768 6.18643C6.68358 6.15743 6.72547 6.1381 6.77334 6.11877C6.79727 6.1091 6.8212 6.09943 6.84513 6.08977C7.07251 5.96893 7.21611 5.77557 7.42554 5.64023L7.40759 5.65473C7.41955 5.59189 7.46742 5.55323 7.5452 5.53873L7.52725 5.55323C7.54521 5.49039 7.59307 5.45656 7.66487 5.43723L7.64692 5.45173C7.66487 5.39372 7.71274 5.35504 7.78454 5.33571L7.76659 5.35022C7.79053 5.29705 7.8384 5.25838 7.90422 5.23905L7.89225 5.24871C7.91618 5.19554 7.96405 5.16171 8.02389 5.13754L8.01192 5.14721C8.04183 5.09887 8.08372 5.06019 8.14356 5.03603L8.13159 5.04087C8.15552 5.01186 8.17347 4.97803 8.18544 4.94903C8.19142 4.93452 8.20339 4.91519 8.20937 4.90069C8.22733 4.86685 8.24528 4.83785 8.26921 4.80885C8.28118 4.79435 8.29913 4.77985 8.31109 4.76535C8.34101 4.73634 8.37092 4.71217 8.40084 4.68801C8.41879 4.67351 8.43076 4.66384 8.44871 4.64934C8.47863 4.62034 8.50855 4.59617 8.54445 4.572C8.5624 4.5575 8.57437 4.54301 8.59232 4.53334C8.62224 4.50434 8.65814 4.47533 8.68806 4.45116C8.70601 4.43666 8.72396 4.42216 8.74191 4.40766C8.77781 4.37866 8.82568 4.35932 8.86756 4.33999C8.8915 4.33032 8.91543 4.32065 8.93936 4.31099C9.20264 4.15148 9.39411 3.93397 9.63943 3.75996L9.62148 3.77446C9.63345 3.71162 9.68132 3.67296 9.7591 3.65846L9.74115 3.67296C9.7591 3.61496 9.80697 3.57628 9.87877 3.55694L9.86082 3.57144C9.88475 3.51344 9.92665 3.47961 9.99845 3.45544L9.98648 3.4651C10.0104 3.41193 10.0583 3.37327 10.1181 3.35394L10.1061 3.3636C10.1361 3.31526 10.1779 3.27659 10.2378 3.25242L10.2258 3.2621C10.2557 3.21376 10.3036 3.17992 10.3575 3.15092L10.3515 3.15576C10.3754 3.12676 10.3934 3.09292 10.4113 3.05908C10.4173 3.04458 10.4293 3.02524 10.4352 3.01074C10.4532 2.97691 10.4771 2.94791 10.4951 2.91408C10.507 2.89958 10.525 2.88508 10.537 2.87058C10.5669 2.84158 10.5968 2.81257 10.6327 2.7884C10.6506 2.7739 10.6626 2.7594 10.6806 2.7449C10.7105 2.7159 10.7464 2.6869 10.7823 2.6579C10.8002 2.6434 10.8182 2.6289 10.8361 2.6144C10.872 2.58539 10.9199 2.56122 10.9618 2.54672C10.9857 2.53705 11.0097 2.52739 11.0336 2.51772C11.3029 2.36304 11.4883 2.1407 11.7396 1.96669L11.7217 1.98119C11.7337 1.91836 11.7815 1.87968 11.8593 1.86518L11.8414 1.87968C11.8593 1.81684 11.9072 1.78301 11.979 1.76368L11.961 1.77818C11.979 1.72017 12.0269 1.6815 12.0987 1.667L12.0807 1.6815C12.0987 1.62349 12.1465 1.58483 12.2243 1.57033L12.2123 1.58483C12.2482 1.5075 12.35 1.48332 12.4158 1.43016C12.4517 1.40599 12.4816 1.37698 12.5055 1.34798C12.5295 1.31898 12.5534 1.28515 12.5773 1.25615C12.5893 1.24165 12.6073 1.22714 12.6192 1.21264C12.6491 1.18847 12.685 1.16431 12.7209 1.14497C12.7568 1.12564 12.7927 1.11113 12.8286 1.0918C12.8645 1.07246 12.9004 1.05797 12.9363 1.03863C12.9663 1.01447 13.0022 0.995129 13.0321 0.975794C13.068 0.961293 13.1039 0.941961 13.1398 0.932293C13.1757 0.917793 13.2176 0.912965 13.2595 0.908131C13.3253 0.908131 13.3791 0.893623 13.427 0.854954C13.4749 0.821118 13.5108 0.777624 13.5826 0.772791L13.5646 0.787291C13.6125 0.690619 13.7322 0.709948 13.8219 0.676112L13.804 0.685774C13.8578 0.593936 13.9775 0.61327 14.0672 0.579434L14.0553 0.589111C14.1031 0.492439 14.2288 0.526268 14.3066 0.492433C14.3425 0.468265 14.3844 0.439261 14.4203 0.415093C14.4801 0.381258 14.5399 0.35226 14.5998 0.313591C14.6416 0.294257 14.6835 0.279758 14.7314 0.270091C14.7972 0.265257 14.869 0.265252 14.9348 0.265252C14.9767 0.265252 15.0246 0.274919 15.0665 0.279753C15.1024 0.294253 15.1323 0.284582 15.1562 0.260414C15.2759 0.173409 15.4434 0.231416 15.5751 0.173412C15.605 0.192747 15.6289 0.187919 15.6469 0.163751C15.8862 0.0380766 16.1734 0.178246 16.4188 0.0670724C16.4487 0.0864068 16.4786 0.0815833 16.5085 0.0622488C16.8795 -0.0247563 17.2445 -0.0150937 17.6155 0.0574105C17.6813 0.0622441 17.7531 0.0622388 17.8189 0.0670724C18.0642 0.173412 18.3574 0.0284141 18.5968 0.168589L18.5848 0.163751C18.7284 0.265256 18.9498 0.139578 19.0874 0.265252L19.0754 0.260414C19.1831 0.337752 19.3567 0.260425 19.4524 0.361931L19.4464 0.357092C19.5481 0.444097 19.7336 0.352264 19.8174 0.468271L19.8054 0.463432C19.8892 0.502101 20.0029 0.49244 20.0687 0.56011L20.0627 0.555272C20.1405 0.603608 20.2422 0.593943 20.326 0.632612C20.3978 0.680948 20.4935 0.700287 20.5593 0.75829L20.5534 0.753452C20.6072 0.782454 20.6611 0.801786 20.7269 0.796953C20.7688 0.796953 20.8106 0.806614 20.8465 0.821115C20.8825 0.835616 20.9184 0.850115 20.9543 0.864616C20.9722 0.874283 20.9842 0.883964 21.0021 0.893631C21.05 0.927466 21.1038 0.956454 21.1517 0.985456C21.1876 1.00479 21.2175 1.02897 21.2474 1.05313C21.2774 1.0773 21.3073 1.10147 21.3372 1.13047C21.3552 1.14497 21.3671 1.15463 21.3851 1.16914C21.4329 1.20297 21.5047 1.21747 21.5227 1.27548L21.5107 1.26098C21.5885 1.27064 21.6304 1.30932 21.6603 1.36249L21.6543 1.35282C21.6962 1.37215 21.7381 1.38665 21.78 1.39632C21.8039 1.40598 21.8219 1.41083 21.8458 1.42049C21.8877 1.43499 21.9296 1.45432 21.9715 1.47366C21.9894 1.48332 22.0074 1.49783 22.0313 1.50749C22.0732 1.53166 22.1091 1.56066 22.145 1.58966C22.1629 1.60416 22.1809 1.61867 22.1988 1.63317C22.2347 1.66218 22.2646 1.70084 22.2886 1.73951C22.3005 1.75885 22.3125 1.77818 22.3245 1.79751C22.5159 2.01503 22.7972 2.1697 23.0126 2.36788L22.9946 2.35338C23.0724 2.36304 23.1203 2.40172 23.1382 2.46456L23.1203 2.45006C23.1921 2.46456 23.24 2.50322 23.2639 2.56122L23.2459 2.54672C23.3177 2.56122 23.3596 2.59989 23.3895 2.6579L23.3776 2.64822C23.4434 2.66755 23.4913 2.70622 23.5152 2.75456L23.4972 2.7449C23.5571 2.76907 23.581 2.80773 23.581 2.8609C23.5331 2.94791 23.4853 3.00108 23.3716 2.95758Z" fill="#3F0A96"/>
<path d="M10.3873 24.2925C14.5159 26.0665 18.7642 26.4096 23.1561 24.9934C23.8382 24.7759 24.4605 24.452 25.1127 24.1765C25.2204 24.1475 25.2743 24.1959 25.3042 24.2684C25.1845 24.4279 25.0349 24.5632 24.8554 24.6792L24.8734 24.6647C24.8674 24.7324 24.8195 24.771 24.7357 24.7807L24.7537 24.7662C24.7417 24.8291 24.6939 24.8677 24.6161 24.8822L24.634 24.8677C24.6161 24.9306 24.5682 24.9644 24.5024 24.9837L24.5144 24.9741C24.4964 25.0321 24.4485 25.0659 24.3827 25.0852L24.3947 25.0756C24.3707 25.1287 24.3229 25.1626 24.263 25.1867L24.275 25.1771C24.2511 25.2254 24.2032 25.2641 24.1434 25.2882L24.1553 25.2786C24.1254 25.3269 24.0835 25.3608 24.0297 25.3898L24.0357 25.3849C24.0058 25.4284 23.9579 25.4623 23.91 25.4913L23.916 25.4864C23.8801 25.5251 23.8382 25.5589 23.7903 25.5928C23.7544 25.6266 23.7126 25.6604 23.6707 25.6943C23.3117 26.0665 22.8928 26.3903 22.4441 26.69H22.4381C22.3902 26.719 22.3543 26.7577 22.3064 26.7818L22.3124 26.777C22.2705 26.8205 22.2346 26.8592 22.1688 26.8737L22.1808 26.864C22.085 26.9703 21.9355 27.009 21.8098 27.0767L21.8158 27.0718C21.7739 27.1153 21.738 27.1637 21.6542 27.1589L21.6722 27.1443C21.6423 27.2507 21.5046 27.2217 21.4269 27.27L21.4388 27.2652C21.385 27.3425 21.2653 27.3232 21.1935 27.3764H21.1995C21.1396 27.444 21.02 27.4247 20.9482 27.4779H20.9542C20.8883 27.5407 20.7747 27.5262 20.6969 27.5745L20.7028 27.5697C20.637 27.6422 20.5233 27.6325 20.4336 27.6615L20.4515 27.6519C20.3678 27.7824 20.1823 27.6857 20.0746 27.7679L20.0865 27.7631C19.9788 27.8742 19.7993 27.8017 19.6737 27.8646L19.6318 27.8549L19.6019 27.8791C19.4523 27.9854 19.2489 27.8742 19.0993 27.9709H19.1053C18.7702 28.1111 18.3992 27.9564 18.0581 28.0676C17.8906 28.0676 17.729 28.0676 17.5615 28.0676C17.2264 27.9564 16.8555 28.1062 16.5204 27.9757L16.4905 27.9516L16.4486 27.9661C16.281 27.8839 16.0656 27.9902 15.9101 27.8646L15.922 27.8694C15.8083 27.7969 15.6408 27.8694 15.5391 27.7727H15.5451C15.4433 27.6857 15.2638 27.7727 15.1741 27.6664L15.1861 27.6712C15.1083 27.6277 15.0006 27.6374 14.9228 27.5794C14.839 27.4779 14.6296 27.5891 14.5698 27.444L14.5877 27.4537C14.4261 27.4344 14.3125 27.3425 14.1868 27.2749C14.121 27.2169 13.9953 27.2362 13.9475 27.1589L13.9594 27.1637C13.8218 27.1105 13.6782 27.0573 13.5825 26.9558L13.5944 26.9655C13.5286 26.951 13.4927 26.9123 13.4449 26.8737C13.3312 26.7915 13.1636 26.7673 13.0918 26.6417L13.1098 26.6562C13.026 26.6513 12.9841 26.6127 12.9602 26.5498L12.9781 26.5643C12.9063 26.5498 12.8585 26.5112 12.8345 26.458L12.8465 26.4676C12.7807 26.4483 12.7328 26.4096 12.7089 26.3613L12.7208 26.371C12.661 26.3516 12.6131 26.313 12.5832 26.2646L12.5952 26.2743C12.5354 26.2501 12.4935 26.2163 12.4576 26.168L12.4636 26.1728C12.4097 26.1486 12.3678 26.11 12.3319 26.0713L12.3379 26.0761C12.29 26.0471 12.2481 26.0133 12.2063 25.9746C12.1584 25.9456 12.1225 25.9118 12.0806 25.8779C11.7216 25.6653 11.4284 25.4043 11.1233 25.1481L11.1412 25.1626C11.0514 25.1577 11.0096 25.1191 10.9976 25.0514L11.0155 25.0659C10.9318 25.0611 10.8899 25.0176 10.8719 24.9547L10.8899 24.9692C10.8121 24.9596 10.7702 24.9209 10.7463 24.8581L10.7642 24.8726C10.6924 24.8581 10.6446 24.8194 10.6206 24.7662L10.6326 24.7759C10.5668 24.7565 10.5189 24.7227 10.495 24.6695L10.507 24.6792C10.4411 24.6599 10.3992 24.6212 10.3693 24.5729L10.3813 24.5825C10.3215 24.5584 10.2796 24.5245 10.2437 24.4762L10.2497 24.481C10.1958 24.452 10.1719 24.4085 10.1719 24.3554C10.2257 24.2974 10.2736 24.2442 10.3873 24.2925Z" fill="#1A88E1"/>
<path d="M17.3521 4.3501C19.0095 4.59661 19.919 5.602 20.0387 7.30827C20.2361 10.0586 18.471 11.8664 15.6827 13.1521C14.1689 13.8481 12.4995 14.1672 10.7583 14.23C10.6027 14.1382 10.3873 14.2107 10.2377 14.1043C10.2257 14.0947 10.2138 14.0802 10.1719 14.027C10.2856 13.8046 10.5728 13.7418 10.836 13.6983C11.2968 13.6258 11.4464 13.4083 11.4823 13.0409C11.6259 11.5232 11.8353 10.0103 12.5593 8.58435C13.1756 7.36628 13.9176 6.22071 15.1382 5.30716C15.7784 4.8238 16.4306 4.39843 17.3521 4.3501Z" fill="#3F0A96"/>
<path d="M17.6417 4.41245C14.0037 5.78037 12.8668 8.43402 12.2206 11.3342C12.1249 11.7547 12.0591 12.1849 12.0591 12.6103C12.065 13.432 11.8975 14.1039 10.5811 13.9927C10.6649 14.2392 11.0419 14.0362 11.0478 14.2924C10.1623 14.3407 9.27672 14.3117 8.39714 14.2247C8.32534 14.1183 8.44501 14.0893 8.51681 14.0458C9.39638 13.9975 9.55196 13.5818 9.58188 12.9293C9.68959 10.5946 10.3777 8.38569 12.1069 6.45708C13.4712 4.93932 15.2363 4.10794 17.6417 4.41245Z" fill="#1A88E1"/>
<path d="M29.943 7.72507C29.9848 7.75891 30.0267 7.7879 30.0686 7.82174C30.1105 7.85557 30.1524 7.88458 30.1943 7.91841C30.2362 7.95225 30.278 7.98124 30.3199 8.01508C30.3199 8.03441 30.3139 8.05376 30.302 8.07309C30.1763 10.1274 29.1113 11.7853 27.1008 13.0469C25.7904 13.8686 24.3364 14.4583 22.7747 14.8885C20.4352 15.5313 18.0358 15.9132 15.5586 15.9374C17.8563 15.6474 20.0821 15.1398 22.1823 14.3423C24.7194 13.3804 26.7597 12.0028 27.5316 9.70684C27.9624 8.43077 27.8906 7.14987 27.2504 5.91247C27.2145 5.81096 27.2683 5.78195 27.388 5.81095C27.4598 5.85445 27.5316 5.89796 27.6034 5.94147C27.6453 5.97047 27.6872 6.00431 27.7291 6.03331C27.7709 6.06714 27.8128 6.09614 27.8547 6.12997C27.8966 6.16381 27.9385 6.19281 27.9804 6.22665C28.0223 6.26048 28.0641 6.28948 28.106 6.32331C28.1479 6.35715 28.1898 6.38616 28.2317 6.41999C28.2736 6.45383 28.3154 6.48283 28.3573 6.51667C28.3992 6.5505 28.4411 6.5795 28.483 6.61333V6.60851C28.5308 6.63751 28.5787 6.67134 28.6146 6.71001L28.6086 6.70517C28.6625 6.73417 28.7044 6.768 28.7403 6.80667L28.7343 6.80185C28.7822 6.83085 28.824 6.86468 28.8599 6.89851C28.9018 6.93235 28.9437 6.96619 28.9856 6.99519C29.0215 7.02903 29.0634 7.06287 29.1113 7.09187L29.1172 7.09669C29.3925 7.30937 29.6677 7.51723 29.943 7.72507Z" fill="#3F0A96"/>
<path d="M10.7695 16.4907C11.5055 16.4907 12.3013 16.3457 12.9595 16.5197C13.7074 16.7227 13.51 17.501 13.7553 18.0085C14.9819 20.5365 17.5249 21.5612 20.5945 22.03C20.6723 22.0445 20.756 22.0542 20.8338 22.0639C16.2444 22.9001 11.679 20.3673 10.7695 16.4907Z" fill="#3F0A96"/>
<path fill-rule="evenodd" clip-rule="evenodd" d="M84.7915 15.917C84.7676 15.888 84.7736 15.8639 84.8035 15.8445C84.879 15.7429 84.8685 15.6318 84.8581 15.5219C84.849 15.4263 84.84 15.3316 84.8879 15.2448C84.9838 15.1852 84.9779 15.1039 84.972 15.0215C84.9717 15.0171 84.9714 15.0127 84.9711 15.0083V13.8096C84.977 13.7468 84.9531 13.6936 84.8992 13.6549L84.8753 13.6308L84.8992 13.6066C84.8425 13.5103 84.8476 13.4054 84.8528 13.3C84.8585 13.1831 84.8642 13.0656 84.7856 12.9589L84.7556 12.9347L84.7736 12.9057C84.73 12.844 84.7311 12.7743 84.7322 12.7044C84.7335 12.6208 84.7348 12.5369 84.6599 12.4659V12.4707C84.6008 12.4162 84.6039 12.3488 84.607 12.2813C84.6104 12.205 84.6139 12.1284 84.5283 12.0695L84.5342 12.0792C84.4892 12.036 84.4865 11.9831 84.4839 11.9308C84.4809 11.8718 84.478 11.8133 84.4146 11.7698V11.7746C84.3642 11.7339 84.3622 11.6805 84.3604 11.6277C84.3582 11.5678 84.3561 11.5087 84.2829 11.4701L84.2889 11.4798C84.2461 11.4192 84.2416 11.3548 84.2368 11.2864C84.2363 11.2784 84.2357 11.2704 84.2351 11.2623C84.2233 11.2243 84.1943 11.2004 84.148 11.1903C84.1418 11.1724 84.1376 11.1538 84.1333 11.1353C84.1196 11.076 84.1061 11.0173 84.0316 10.9819L84.0376 10.9916C84.02 10.9667 84.0113 10.9379 84.0026 10.909C83.9876 10.8594 83.9725 10.8095 83.912 10.7789L83.9179 10.7886C83.8933 10.7627 83.8829 10.7311 83.8724 10.6995C83.8575 10.6543 83.8426 10.6092 83.7863 10.5807L83.7923 10.5904C83.7684 10.5654 83.7579 10.5349 83.7474 10.5046C83.7316 10.4589 83.7158 10.4135 83.6547 10.3874L83.6607 10.3971C83.6447 10.3745 83.6374 10.3482 83.6301 10.3219C83.6162 10.2718 83.6023 10.2218 83.5289 10.1976C83.5276 10.1658 83.516 10.1343 83.4991 10.107C83.4871 10.0732 83.4692 10.0442 83.4512 10.0152C83.4393 9.98141 83.4213 9.95243 83.4034 9.92347L83.4034 9.92336C83.3854 9.89436 83.3615 9.86537 83.3316 9.8412C83.3086 9.82636 83.2891 9.80581 83.2705 9.78613C83.2649 9.78018 83.2593 9.7743 83.2538 9.76869C83.2448 9.75418 83.2343 9.73968 83.2239 9.72518C83.2134 9.71068 83.2029 9.69618 83.1939 9.68168C83.176 9.65268 83.158 9.62368 83.1341 9.59468C83.1162 9.56568 83.0862 9.54151 83.0563 9.51734L82.9666 9.44484C82.9307 9.42067 82.9007 9.39651 82.8708 9.37234C82.823 9.32884 82.7871 9.28533 82.7631 9.23216C82.7512 9.19353 82.7332 9.15971 82.7153 9.12591L82.7153 9.12582C82.6973 9.08715 82.6734 9.05332 82.6494 9.01948C82.6457 9.01546 82.6422 9.01165 82.6389 9.008C82.6263 8.99412 82.6158 8.98263 82.6016 8.97114C82.5657 8.94214 82.5298 8.91797 82.4879 8.8938C82.4669 8.88414 82.4445 8.87447 82.4221 8.8648C82.3996 8.85514 82.3772 8.84547 82.3562 8.8358C82.2677 8.79289 82.2025 8.73 82.1376 8.66742C82.0753 8.60737 82.0133 8.54762 81.9313 8.50606C81.9286 8.44382 81.8835 8.40753 81.801 8.40125C81.7477 8.33489 81.6737 8.28267 81.5995 8.23037C81.5111 8.16802 81.4226 8.10556 81.369 8.01892L81.3331 7.96092C81.3091 7.92708 81.2732 7.89324 81.2373 7.86424C81.2323 7.86122 81.2276 7.8584 81.2231 7.85571C81.2059 7.8455 81.1917 7.83705 81.1775 7.82558C81.1356 7.80624 81.0937 7.78692 81.0459 7.77242C81.004 7.75308 80.9621 7.74341 80.9142 7.73374C80.8245 7.70957 80.7586 7.66123 80.6928 7.6129C80.6868 7.60565 80.6794 7.59961 80.6719 7.59357C80.6644 7.58753 80.6569 7.58149 80.651 7.57424C80.6211 7.5453 80.5912 7.52117 80.5614 7.49706L80.5612 7.4969L80.561 7.49675C80.5312 7.47263 80.5013 7.44851 80.4655 7.42922C80.4296 7.40989 80.3937 7.39486 80.3578 7.37982C80.3398 7.3723 80.3219 7.36478 80.3039 7.35672L80.256 7.33255C80.2261 7.31322 80.1962 7.29388 80.1663 7.26972C80.1364 7.24555 80.1065 7.22622 80.0706 7.21171C80.0347 7.1956 80.0041 7.17519 79.9735 7.15478C79.9582 7.14457 79.9429 7.13437 79.9269 7.1247L79.8791 7.0957L79.7714 7.0522C79.7295 7.0377 79.6936 7.03286 79.6517 7.03286C79.5954 7.03286 79.5478 7.01517 79.5015 6.99795C79.495 6.9955 79.4884 6.99307 79.4819 6.99069C79.4638 6.96434 79.4327 6.94989 79.4007 6.93499C79.3777 6.92426 79.3541 6.91331 79.3346 6.89752C79.3238 6.88706 79.3138 6.8766 79.304 6.86637C79.2866 6.84823 79.2699 6.83081 79.2508 6.81535C79.197 6.78152 79.1431 6.75734 79.0833 6.73318C79.0474 6.71868 79.0115 6.70418 78.9696 6.68968C78.9369 6.67793 78.8997 6.67154 78.8622 6.66508C78.838 6.66091 78.8136 6.65671 78.7901 6.65101C78.7799 6.64964 78.7691 6.64787 78.7581 6.64605C78.7303 6.64146 78.7004 6.63651 78.6704 6.63651C78.6056 6.64127 78.5524 6.61793 78.4994 6.59415C78.4548 6.54804 78.3898 6.53698 78.3251 6.52598C78.299 6.52154 78.273 6.51711 78.2484 6.51039C78.2045 6.44022 78.1278 6.43834 78.051 6.43646C77.9892 6.43495 77.9273 6.43343 77.8823 6.39631C77.8836 6.39726 77.8848 6.39821 77.886 6.39918L77.8806 6.39483C77.8812 6.39533 77.8818 6.39582 77.8823 6.39631C77.8412 6.36445 77.7906 6.34459 77.74 6.32474C77.6876 6.30419 77.6353 6.28365 77.5934 6.24982C77.5575 6.22565 77.5156 6.21116 77.4677 6.20149C77.4416 6.19868 77.4149 6.19668 77.3881 6.19467C77.3227 6.18977 77.2561 6.18478 77.1925 6.16765C77.1506 6.15315 77.1027 6.14348 77.0549 6.14348C76.9631 6.15637 76.898 6.12199 76.8328 6.08762C76.8002 6.07044 76.7676 6.05325 76.7317 6.04197C76.6839 6.03714 76.636 6.03714 76.5881 6.04197C76.4685 6.05164 76.3488 6.03231 76.2291 6.00331L76.1992 6.01781L76.1753 5.99363C76.0715 5.9301 75.9511 5.93471 75.8307 5.93932C75.7222 5.94348 75.6136 5.94764 75.5171 5.90179C75.4812 5.92113 75.4573 5.9163 75.4333 5.89213C75.1972 5.82278 74.9517 5.83212 74.7064 5.84145C74.473 5.85034 74.2399 5.85921 74.0152 5.80029H73.7699C73.4912 5.85811 73.2077 5.85079 72.9239 5.84347C72.7569 5.83915 72.5899 5.83484 72.4236 5.84379C72.3518 5.83896 72.292 5.85829 72.2381 5.90179H72.2441C72.1207 5.95477 71.9898 5.94948 71.8594 5.94422C71.7876 5.94132 71.7159 5.93843 71.6458 5.9453C71.5859 5.9453 71.5381 5.96947 71.5022 6.00813L71.5141 6.00331C71.4414 6.04625 71.3569 6.04375 71.2728 6.04127C71.1795 6.03851 71.0868 6.03577 71.0113 6.09524C70.9259 6.14349 70.8344 6.14249 70.7433 6.1415C70.7068 6.14111 70.6704 6.14071 70.6345 6.14348C70.5807 6.14831 70.5388 6.17248 70.5149 6.21115L70.5268 6.20631C70.4795 6.2325 70.4217 6.2335 70.3635 6.23451C70.2826 6.23591 70.2009 6.23732 70.145 6.3064C70.0589 6.33276 69.9725 6.34166 69.8806 6.34166C69.8336 6.35115 69.8039 6.37465 69.7858 6.41214C69.7632 6.41761 69.7395 6.42154 69.7157 6.4255C69.6496 6.43647 69.5824 6.44763 69.5318 6.49249C69.4725 6.52561 69.4072 6.53984 69.3361 6.53984C69.3336 6.54013 69.331 6.54043 69.3284 6.54073C69.2884 6.5453 69.2438 6.5504 69.2045 6.56401C69.1727 6.58283 69.1357 6.59498 69.0988 6.60712C69.032 6.62908 68.9653 6.65097 68.9302 6.71211C68.9056 6.71858 68.8797 6.72235 68.854 6.72609C68.7839 6.7363 68.7156 6.74625 68.6807 6.81009C68.659 6.81569 68.6358 6.8192 68.6125 6.82272C68.5442 6.83305 68.4751 6.84349 68.443 6.9073C68.4036 6.90838 68.3646 6.91773 68.3309 6.93136C68.295 6.94102 68.2531 6.95553 68.2172 6.97003C68.1813 6.9797 68.1394 6.9942 68.1035 7.0087L68.1035 7.00872C68.0676 7.02321 68.0317 7.03771 67.9958 7.05704C67.9779 7.06429 67.9584 7.07154 67.939 7.07879C67.9195 7.08604 67.9001 7.09329 67.8821 7.10054C67.8642 7.10779 67.8462 7.11625 67.8283 7.12471C67.8103 7.13317 67.7924 7.14162 67.7744 7.14888C67.7565 7.15854 67.7385 7.167 67.7206 7.17546C67.7026 7.18391 67.6847 7.19237 67.6667 7.20204C67.6308 7.22137 67.6009 7.24071 67.571 7.26488C67.5605 7.27053 67.5505 7.27618 67.5407 7.28171C67.5171 7.29511 67.4947 7.30779 67.4693 7.31805C67.4334 7.33256 67.3975 7.35188 67.3676 7.37122C67.3376 7.39055 67.3077 7.41472 67.2898 7.44372C67.2718 7.47272 67.2479 7.49689 67.218 7.52106C67.2052 7.5288 67.1911 7.53516 67.1773 7.54144C67.1421 7.55736 67.1082 7.57271 67.0998 7.60852C67.0534 7.6135 67.0071 7.62301 66.9607 7.63706C66.9429 7.64064 66.9285 7.64689 66.9124 7.65382C66.9068 7.65624 66.901 7.65874 66.8948 7.66124C66.847 7.68057 66.8051 7.70473 66.7692 7.7289C66.7333 7.7579 66.7034 7.79174 66.6795 7.82558C66.6552 7.85821 66.6201 7.88202 66.5849 7.90584C66.5448 7.93302 66.5047 7.96021 66.4808 8.00049C66.4062 8.01088 66.3662 8.04544 66.3424 8.09671C66.3014 8.10623 66.2659 8.11582 66.2247 8.1301C66.2157 8.13252 66.2052 8.13614 66.1948 8.13977C66.1843 8.14339 66.1738 8.14702 66.1649 8.14944C66.1469 8.15669 66.1275 8.16514 66.108 8.1736C66.0886 8.18205 66.0691 8.19051 66.0512 8.19776C66.0392 8.21226 66.0213 8.22193 66.0033 8.2316L65.9136 8.3041C65.9098 8.30716 65.9054 8.31022 65.9008 8.31344C65.8908 8.32038 65.8799 8.32803 65.8717 8.33794L65.7819 8.41044C65.7781 8.4135 65.7737 8.41656 65.7691 8.41978C65.7592 8.42672 65.7482 8.43437 65.74 8.44428L65.6503 8.51678C65.6443 8.52403 65.6368 8.53008 65.6293 8.53612C65.6219 8.54216 65.6144 8.54821 65.6084 8.55546C65.5785 8.58446 65.5545 8.61346 65.5366 8.64246C65.5366 8.65394 65.5328 8.66543 65.5283 8.67932C65.5271 8.68296 65.5259 8.68678 65.5246 8.6908C65.5127 8.72453 65.5008 8.75345 65.4829 8.78716C65.4279 8.80914 65.3868 8.83904 65.3675 8.88625C65.3013 8.90552 65.257 8.93835 65.2498 9.00105C65.1993 9.0198 65.163 9.05348 65.1267 9.08715C65.0863 9.12461 65.0459 9.16207 64.9861 9.17898C64.9812 9.18198 64.9765 9.18478 64.972 9.18745C64.9548 9.1977 64.9405 9.20616 64.9263 9.21766C64.8904 9.24666 64.8664 9.28049 64.8425 9.31432C64.8246 9.34816 64.8066 9.38683 64.7946 9.4255C64.7695 9.48061 64.7315 9.53049 64.6934 9.58037C64.6685 9.61306 64.6435 9.64575 64.6222 9.6799C64.6202 9.68114 64.6183 9.68237 64.6163 9.68359C64.5685 9.71332 64.5236 9.74128 64.5197 9.79481C64.4763 9.80397 64.4554 9.83137 64.4339 9.85951C64.422 9.87512 64.4099 9.89095 64.3937 9.90403C64.3578 9.92819 64.3279 9.9572 64.304 9.9862C64.2801 10.0152 64.2614 10.0485 64.2428 10.0818C64.2335 10.0984 64.2242 10.1151 64.2142 10.1312C64.2113 10.1385 64.2068 10.1469 64.2023 10.1554C64.1978 10.1638 64.1933 10.1723 64.1903 10.1795C64.1734 10.2114 64.1618 10.2432 64.1505 10.275C64.0865 10.3007 64.0707 10.3483 64.055 10.3954C64.0457 10.4236 64.0364 10.4515 64.0168 10.4744L64.0228 10.4647C63.9665 10.4932 63.9515 10.5383 63.9366 10.5835C63.9262 10.6151 63.9158 10.6467 63.8911 10.6726L63.8971 10.6629C63.8434 10.6918 63.8283 10.7381 63.8132 10.784C63.8031 10.8148 63.7931 10.8455 63.7715 10.8707L63.7774 10.8611C63.7144 10.8929 63.7007 10.9436 63.6867 10.9952C63.6803 11.0187 63.6739 11.0424 63.6627 11.0646C63.5972 11.0962 63.5742 11.1459 63.5514 11.1954C63.5391 11.2219 63.5269 11.2484 63.5082 11.2719C63.4902 11.3106 63.4723 11.3493 63.4603 11.3879C63.4603 11.449 63.4434 11.5054 63.415 11.5618C63.3342 11.6039 63.3325 11.6678 63.3307 11.7316C63.3294 11.7797 63.3281 11.8278 63.2928 11.8665L63.2988 11.852C63.2034 11.9059 63.2077 11.9831 63.212 12.0603C63.2158 12.1283 63.2196 12.1963 63.1552 12.2483V12.2435C63.0849 12.3028 63.0879 12.3759 63.091 12.4494C63.094 12.5197 63.097 12.5904 63.0355 12.6495V12.6447C62.9529 12.7293 62.958 12.8276 62.9631 12.9257C62.9675 13.0125 62.972 13.0993 62.9158 13.1764C62.9398 13.2006 62.9338 13.2199 62.9039 13.2392C62.8109 13.6749 62.8242 14.1143 62.8376 14.5539C62.8457 14.8215 62.8539 15.0893 62.838 15.3563V15.5255C62.8474 15.5476 62.857 15.5695 62.8667 15.5914C62.9311 15.7378 62.9949 15.883 62.9637 16.0427V16.043C62.9637 16.0913 62.9637 16.1395 62.9697 16.1877C63.0475 16.2844 63.1133 16.3859 63.0534 16.5067C63.0594 16.5502 63.0774 16.5938 63.1073 16.6324C63.1721 16.6673 63.186 16.7229 63.1998 16.7784C63.2126 16.8296 63.2254 16.8808 63.2781 16.9158C63.3188 16.9552 63.3212 17.005 63.3235 17.0547C63.3263 17.1151 63.3292 17.1754 63.4005 17.2173L63.3945 17.2076C63.4393 17.2438 63.4412 17.2932 63.443 17.3428C63.4453 17.4046 63.4476 17.4668 63.5326 17.5049C63.5436 17.5274 63.5504 17.5514 63.5572 17.5753C63.5713 17.6245 63.5851 17.6731 63.635 17.7071C63.6644 17.7501 63.6877 17.7932 63.6877 17.8457C63.6877 17.8795 63.6877 17.9133 63.6937 17.9472C63.7057 17.9955 63.7236 18.0438 63.7535 18.0873C63.7595 18.097 63.7648 18.1067 63.7701 18.1163C63.7808 18.1357 63.7914 18.155 63.8074 18.1743C63.8313 18.2178 63.8552 18.2613 63.8851 18.3048L63.939 18.3919C63.9689 18.4354 64.0048 18.4789 64.0467 18.5175C64.0571 18.5243 64.0676 18.5316 64.0782 18.5391C64.0982 18.5531 64.1191 18.5678 64.1424 18.5804C64.1578 18.5928 64.1691 18.6084 64.1806 18.6243C64.2001 18.6511 64.2198 18.6785 64.2602 18.691C64.3139 18.8081 64.3906 18.9112 64.5014 18.9961L64.4955 18.9864C64.5044 19.0002 64.5132 19.0141 64.5219 19.0279C64.5832 19.1248 64.6428 19.219 64.7528 19.2909L64.7408 19.2861L64.7946 19.3876C64.8186 19.4166 64.8485 19.4456 64.8844 19.4698C64.9502 19.5229 65.0041 19.5809 65.034 19.6534C65.046 19.6873 65.0639 19.7259 65.0818 19.7598C65.0998 19.7984 65.1178 19.8323 65.1477 19.8661C65.1566 19.8734 65.1641 19.8806 65.1716 19.8879C65.1791 19.8951 65.1866 19.9024 65.1955 19.9096C65.2314 19.9386 65.2733 19.9676 65.3152 19.987C65.3631 20.0063 65.4109 20.0256 65.4528 20.0498C65.48 20.0702 65.5072 20.0906 65.5344 20.1109C65.7651 20.2834 65.9955 20.4556 66.1828 20.6588L66.2187 20.7168C66.2427 20.7555 66.2785 20.7893 66.3144 20.8183C66.3324 20.828 66.3563 20.8425 66.3743 20.857C66.4162 20.8812 66.464 20.9005 66.5119 20.915C66.5358 20.9198 66.5597 20.9295 66.5836 20.9391L66.5837 20.9392C66.6316 20.9537 66.6794 20.9633 66.7273 20.973L66.7259 20.9706C66.7563 21.0173 66.8084 21.0481 66.8603 21.0787C66.8938 21.0985 66.9273 21.1182 66.9547 21.1422C66.9584 21.1462 66.9619 21.15 66.9652 21.1537C66.9779 21.1675 66.9883 21.179 67.0026 21.1905C67.0265 21.2244 67.0504 21.2534 67.0803 21.2824C67.1162 21.3065 67.1521 21.3258 67.188 21.3451L67.1881 21.3452C67.215 21.3573 67.2434 21.3682 67.2718 21.379C67.3002 21.3899 67.3287 21.4008 67.3556 21.4129C67.3556 21.408 67.4094 21.437 67.4094 21.437C67.4453 21.4564 67.4753 21.4757 67.5052 21.4999C67.5351 21.524 67.565 21.5434 67.6009 21.5579C67.6548 21.582 67.6966 21.611 67.7445 21.6449L67.7924 21.6739L67.9001 21.7174C67.942 21.7319 67.9779 21.7367 68.0198 21.7367C68.0846 21.732 68.1379 21.7554 68.1909 21.7792L68.313 21.9059C68.3429 21.9301 68.3788 21.9542 68.4207 21.9687C68.4745 21.9929 68.5343 22.0171 68.5942 22.0412C68.6301 22.0606 68.666 22.0751 68.7079 22.0896C68.7438 22.1089 68.7797 22.1234 68.8215 22.1379L68.822 22.1381C68.8578 22.1525 68.8935 22.167 68.9352 22.1814C68.9427 22.1838 68.9501 22.1863 68.9575 22.1887C69.0088 22.2054 69.0572 22.2213 69.1147 22.2297C69.1357 22.2297 69.1566 22.2309 69.1776 22.2322C69.1985 22.2334 69.2194 22.2346 69.2404 22.2346C69.2992 22.2346 69.3579 22.2532 69.411 22.2768C69.4585 22.3297 69.5266 22.3398 69.5962 22.3502C69.6196 22.3538 69.6432 22.3573 69.6663 22.3625C69.6843 22.3999 69.714 22.4233 69.761 22.4328C69.8527 22.4374 69.9388 22.442 70.0248 22.4721C70.0786 22.5366 70.1584 22.5392 70.2371 22.5419C70.2989 22.5439 70.3599 22.546 70.4072 22.5778L70.3952 22.5729C70.4377 22.6244 70.5048 22.6349 70.5715 22.6453C70.6364 22.6554 70.701 22.6654 70.7423 22.7131C70.7901 22.7276 70.844 22.7373 70.8978 22.7373C71.0414 22.7276 71.1671 22.7566 71.2748 22.8291C71.3286 22.834 71.3825 22.8388 71.4363 22.8388C71.4647 22.8388 71.4933 22.8383 71.522 22.8379C71.6564 22.8358 71.7928 22.8336 71.921 22.8775L71.9569 22.8629L71.9868 22.8871C72.1292 22.9571 72.2843 22.9495 72.4398 22.942C72.5808 22.9351 72.7222 22.9282 72.8546 22.9791C72.9336 23.052 73.034 23.0474 73.1405 23.0426C73.1469 23.0424 73.1532 23.0421 73.1596 23.0418C73.3482 23.031 73.5376 23.0356 73.7273 23.0401C74.049 23.0478 74.3714 23.0555 74.6914 22.9886C74.7213 22.9862 74.7527 22.985 74.7841 22.9838C74.8155 22.9826 74.8469 22.9814 74.8768 22.979C74.9984 22.9322 75.1298 22.9363 75.2615 22.9405C75.402 22.9449 75.5429 22.9493 75.6727 22.892L75.7205 22.8726L75.7684 22.8823C75.8617 22.832 75.9683 22.8368 76.0744 22.8416C76.1929 22.8469 76.3108 22.8522 76.4086 22.7808L76.3967 22.7856C76.4668 22.7403 76.5514 22.7428 76.6357 22.7453C76.7311 22.7481 76.8262 22.7509 76.8993 22.6841L76.8873 22.6889C76.9416 22.652 77.0068 22.6503 77.0719 22.6487C77.143 22.6469 77.214 22.6451 77.2703 22.5971C77.3211 22.5512 77.3884 22.5488 77.4558 22.5463C77.5231 22.5439 77.5904 22.5415 77.6412 22.4956C77.6873 22.4514 77.7527 22.4497 77.8182 22.4481C77.8878 22.4463 77.9575 22.4445 78.0041 22.3918C78.0405 22.3703 78.0831 22.3619 78.1254 22.3535C78.173 22.3441 78.2201 22.3348 78.2575 22.3071L78.2815 22.2829L78.3234 22.2878C78.3526 22.2794 78.3838 22.2743 78.4152 22.2691C78.4929 22.2563 78.5714 22.2434 78.6225 22.1814L78.6106 22.1862C78.6414 22.172 78.677 22.165 78.7128 22.1579C78.7742 22.1458 78.836 22.1336 78.8738 22.0847L78.8619 22.0896C78.8922 22.0726 78.929 22.0645 78.9661 22.0562C79.024 22.0434 79.0827 22.0304 79.1192 21.9832L79.1072 21.9881C79.1381 21.972 79.174 21.9645 79.2096 21.9571C79.2704 21.9443 79.3305 21.9318 79.3645 21.8769L79.3525 21.8817C79.3804 21.8688 79.413 21.8629 79.4456 21.857C79.5059 21.8461 79.5662 21.8351 79.597 21.7799C79.6504 21.7766 79.6833 21.7495 79.716 21.7226C79.7263 21.7142 79.7366 21.7057 79.7474 21.6981C79.7766 21.6724 79.8175 21.6618 79.8581 21.6514C79.9091 21.6383 79.9597 21.6252 79.9864 21.5826C80.1212 21.5325 80.25 21.4814 80.3479 21.393C80.3867 21.3831 80.4154 21.3609 80.4442 21.3388C80.4588 21.3275 80.4734 21.3162 80.4894 21.3065H80.4954C80.5217 21.2768 80.563 21.2657 80.6037 21.2548C80.651 21.2422 80.6973 21.2298 80.7177 21.1884C80.7817 21.1761 80.8206 21.1393 80.8543 21.094C80.8864 21.0802 80.9123 21.0595 80.9395 21.0379C80.9525 21.0275 80.9657 21.017 80.98 21.0068C81.0219 20.973 81.0738 20.9487 81.1254 20.9244C81.2013 20.8888 81.2766 20.8535 81.3189 20.7886C81.3933 20.7813 81.4328 20.7418 81.4561 20.6891C81.5155 20.6732 81.5528 20.6392 81.5802 20.5936C81.6387 20.5745 81.6776 20.5395 81.706 20.496C81.7597 20.4731 81.8032 20.442 81.8319 20.3989C81.8804 20.3759 81.9234 20.3448 81.9518 20.3018C82.0046 20.275 82.0428 20.2439 82.071 20.2012C82.1248 20.1782 82.1681 20.1468 82.1917 20.0995C82.2488 20.0772 82.2913 20.0467 82.3106 19.9977C82.377 19.9786 82.4187 19.947 82.4271 19.8888C82.514 19.8534 82.5593 19.7893 82.6041 19.7257C82.632 19.6862 82.6598 19.6469 82.6973 19.6148C82.7025 19.6106 82.7078 19.6064 82.7131 19.6021C82.749 19.5737 82.7865 19.5439 82.808 19.5044C82.8661 19.4783 82.9129 19.4507 82.9182 19.3937C82.9787 19.3781 82.9947 19.3358 83.0104 19.294C83.022 19.2634 83.0334 19.233 83.0623 19.2136C83.0687 19.2084 83.0753 19.2033 83.082 19.1981C83.1161 19.1717 83.1524 19.1436 83.1665 19.1049C83.2262 19.0864 83.2428 19.0447 83.2594 19.0027C83.2716 18.9718 83.2839 18.9407 83.3136 18.9187C83.3191 18.9143 83.3248 18.9098 83.3306 18.9053C83.3665 18.8774 83.4051 18.8473 83.414 18.8021C83.4749 18.7789 83.4899 18.7348 83.505 18.6904C83.5148 18.6617 83.5246 18.6328 83.547 18.6094L83.541 18.619C83.5938 18.595 83.6084 18.5534 83.6229 18.5119C83.6347 18.4783 83.6464 18.4447 83.6786 18.4209V18.4257C83.7175 18.3991 83.7295 18.3629 83.7414 18.3266C83.7534 18.2903 83.7654 18.2541 83.8043 18.2275C83.8402 18.2009 83.8536 18.1647 83.8671 18.1284C83.8805 18.0922 83.894 18.0559 83.9299 18.0293C83.9672 18.0017 83.9803 17.9637 83.9935 17.9254C84.0057 17.8899 84.0179 17.8542 84.0496 17.8263V17.8312C84.0963 17.7964 84.1106 17.7511 84.125 17.7059C84.1346 17.6757 84.1441 17.6456 84.1633 17.6185L84.1573 17.6281C84.2325 17.5927 84.2355 17.5347 84.2385 17.4764C84.2412 17.4234 84.2439 17.3701 84.3009 17.3333C84.349 17.2879 84.3649 17.2317 84.381 17.1748C84.3888 17.1468 84.3968 17.1187 84.4086 17.0916L84.3966 17.0578L84.4265 17.0336C84.4804 16.9925 84.4834 16.9381 84.4864 16.8838C84.4894 16.8294 84.4924 16.775 84.5462 16.7339V16.7388C84.6089 16.6881 84.6134 16.6227 84.6178 16.5572C84.6214 16.504 84.625 16.4507 84.6599 16.4052C84.6419 16.3811 84.6419 16.3569 84.6778 16.3424C84.7469 16.2765 84.7452 16.1986 84.7434 16.1207C84.7419 16.0499 84.7403 15.9791 84.7915 15.917ZM74.4059 19.494C77.7926 19.4843 80.521 17.285 80.515 14.5733C80.5091 11.881 77.7327 9.67205 74.364 9.66721C71.0013 9.66238 68.2189 11.8858 68.213 14.5782C68.207 17.3043 70.9833 19.5085 74.4059 19.494Z" fill="#1A88E1"/>
<path d="M92.1515 7.22651C92.1934 7.26034 92.2293 7.29417 92.2712 7.32801C92.313 7.36184 92.3489 7.39567 92.3908 7.42951C92.4327 7.46334 92.4686 7.49719 92.5105 7.53103C92.5524 7.56486 92.5883 7.59869 92.6302 7.63253C92.9293 7.88871 93.2285 8.14489 93.5277 8.40107C93.5636 8.43974 93.6115 8.46874 93.6474 8.50257C93.6952 8.53641 93.7371 8.56541 93.773 8.60891L93.767 8.60409C93.8149 8.63309 93.8628 8.66693 93.8927 8.71043L93.8867 8.70559C93.9405 8.73459 93.9824 8.77326 94.0124 8.81193L94.0064 8.80709C94.0483 8.84093 94.0841 8.87476 94.126 8.90859C94.1679 8.94243 94.2038 8.97628 94.2457 9.01011C94.2876 9.04395 94.3235 9.07778 94.3654 9.11161C94.4073 9.14545 94.4432 9.17928 94.485 9.21311C94.5269 9.24695 94.5628 9.2808 94.6047 9.31463C94.6466 9.34847 94.6825 9.3823 94.7244 9.41613C95.0236 9.67231 95.3227 9.92849 95.6219 10.1847C95.6578 10.2233 95.6997 10.2523 95.7416 10.2862C95.7835 10.32 95.8254 10.3539 95.8613 10.3877L95.8553 10.3829C95.9031 10.4119 95.945 10.4457 95.9809 10.4892L95.975 10.4844C96.0288 10.5134 96.0707 10.5472 96.1006 10.5907L96.0946 10.5859C96.1485 10.61 96.1903 10.6487 96.2262 10.697L96.2203 10.6922C96.2621 10.726 96.2981 10.7599 96.3399 10.7937C96.3818 10.8276 96.4177 10.8614 96.4596 10.8952C96.5015 10.9291 96.5374 10.9629 96.5793 10.9967C96.6212 11.0306 96.6571 11.0644 96.699 11.0982C96.7408 11.1321 96.7767 11.1659 96.8186 11.1997C96.8605 11.2336 96.8964 11.2674 96.9383 11.3012C97.2375 11.5574 97.5366 11.8136 97.8358 12.0698C97.8717 12.1085 97.9196 12.1374 97.9555 12.1713C97.9974 12.2051 98.0452 12.2341 98.0811 12.2776L98.0752 12.2728C98.123 12.3018 98.1709 12.3356 98.2008 12.3791L98.1948 12.3743C98.2487 12.4033 98.2906 12.442 98.3205 12.4806L98.3145 12.4758C98.3564 12.5096 98.3923 12.5435 98.4342 12.5773C98.476 12.6112 98.512 12.645 98.5538 12.6788C98.5957 12.7127 98.6316 12.7465 98.6735 12.7803C98.7154 12.8142 98.7513 12.848 98.7932 12.8818C98.8351 12.9157 98.871 12.9495 98.9128 12.9833C98.9547 13.0172 98.9906 13.051 99.0325 13.0848C99.3317 13.341 99.6309 13.5972 99.93 13.8534C99.9659 13.8921 100.008 13.9211 100.05 13.9549C100.092 13.9887 100.133 14.0226 100.169 14.0564L100.163 14.0516C100.211 14.0806 100.253 14.1144 100.289 14.1579L100.283 14.1531C100.337 14.1821 100.379 14.2159 100.409 14.2594L100.403 14.2546C100.457 14.2788 100.498 14.3174 100.534 14.3657L100.528 14.3609C100.57 14.3948 100.606 14.4286 100.648 14.4624C100.69 14.4963 100.726 14.5301 100.768 14.5639C100.81 14.5978 100.846 14.6316 100.887 14.6654C100.929 14.6993 100.965 14.7331 101.007 14.7669C101.049 14.8008 101.085 14.8346 101.127 14.8684C101.169 14.9023 101.205 14.9361 101.246 14.9699C101.426 15.1391 101.611 15.3083 101.923 15.6032C101.923 12.2438 101.923 9.02944 101.923 5.81508C103.377 5.81025 104.837 5.81025 106.291 5.80058C106.596 5.79575 106.727 5.84893 106.727 6.12444C106.721 11.4414 106.721 16.7632 106.721 22.0802C106.721 22.23 106.721 22.375 106.721 22.5684C105.848 22.5684 104.992 22.5684 104.142 22.5684C104.101 22.5346 104.065 22.5007 104.023 22.4717C103.724 22.2155 103.424 21.9594 103.125 21.7032C103.083 21.6693 103.047 21.6355 103.006 21.6017C102.964 21.5678 102.928 21.534 102.886 21.5002C102.844 21.4663 102.808 21.4325 102.766 21.3987C102.724 21.3648 102.688 21.331 102.647 21.2971C102.605 21.2633 102.569 21.2295 102.527 21.1956C102.485 21.1618 102.449 21.128 102.407 21.0941C102.365 21.0603 102.329 21.0265 102.288 20.9926C102.246 20.9588 102.21 20.925 102.168 20.8911C102.126 20.8573 102.09 20.8235 102.048 20.7896C102.006 20.7558 101.97 20.722 101.929 20.6881C101.887 20.6543 101.851 20.6204 101.809 20.5866C101.51 20.3304 101.211 20.0742 100.911 19.8181C100.869 19.7842 100.834 19.7504 100.792 19.7166C100.75 19.6827 100.714 19.6489 100.672 19.6151C100.63 19.5812 100.594 19.5474 100.552 19.5135C100.51 19.4797 100.475 19.4459 100.433 19.412C100.391 19.3782 100.355 19.3444 100.313 19.3105C100.271 19.2767 100.235 19.2429 100.193 19.209C100.151 19.1752 100.116 19.1414 100.074 19.1075C100.032 19.0737 99.9959 19.0399 99.954 19.006C99.9121 18.9722 99.8762 18.9384 99.8343 18.9045C99.7924 18.8707 99.7565 18.8368 99.7146 18.803C99.6728 18.7692 99.6369 18.7353 99.595 18.7015C99.2958 18.4453 98.9966 18.1891 98.6974 17.933C98.6556 17.8991 98.6196 17.8653 98.5778 17.8315C98.5359 17.7976 98.5 17.7638 98.4581 17.7299C98.4162 17.6961 98.3803 17.6623 98.3384 17.6284C98.2965 17.5946 98.2607 17.5608 98.2188 17.5269C98.1769 17.4931 98.141 17.4593 98.0991 17.4254C98.0572 17.3916 98.0213 17.3578 97.9794 17.3239C97.9375 17.2901 97.9016 17.2563 97.8598 17.2224C97.8179 17.1886 97.782 17.1547 97.7401 17.1209C97.6982 17.0871 97.6623 17.0532 97.6204 17.0194C97.5785 16.9856 97.5426 16.9517 97.5007 16.9179C97.4589 16.8841 97.4229 16.8502 97.3811 16.8164C97.3392 16.7826 97.3033 16.7487 97.2614 16.7149C96.9622 16.4587 96.6631 16.2025 96.3639 15.9463C96.322 15.9125 96.2861 15.8787 96.2442 15.8448C96.2023 15.811 96.1664 15.7772 96.1245 15.7433C96.0827 15.7095 96.0467 15.6757 96.0049 15.6418C95.963 15.608 95.9271 15.5741 95.8852 15.5403C95.8433 15.5065 95.8074 15.4726 95.7655 15.4388C95.7236 15.405 95.6877 15.3711 95.6458 15.3373C95.604 15.3035 95.5681 15.2696 95.5262 15.2358C95.4843 15.202 95.4484 15.1681 95.4065 15.1343C95.3646 15.1005 95.3287 15.0666 95.2868 15.0328C95.2449 14.999 95.2091 14.9651 95.1672 14.9313C95.1253 14.8975 95.0894 14.8636 95.0475 14.8298C94.7483 14.5736 94.4491 14.3174 94.15 14.0612C94.1081 14.0274 94.0722 13.9936 94.0303 13.9597C93.9884 13.9259 93.9525 13.8921 93.9106 13.8582C93.8687 13.8244 93.8328 13.7906 93.791 13.7567C93.7491 13.7229 93.7132 13.689 93.6713 13.6552C93.6294 13.6214 93.5935 13.5875 93.5516 13.5537C93.5097 13.5199 93.4738 13.486 93.432 13.4522C93.3901 13.4184 93.3542 13.3845 93.3123 13.3507C93.2704 13.3169 93.2345 13.283 93.1926 13.2492C93.1507 13.2153 93.1148 13.1815 93.0729 13.1477C93.0071 13.0848 92.9473 13.022 92.7678 12.8528C92.7678 16.1832 92.7678 19.3879 92.7678 22.5974C91.1941 22.5974 89.6205 22.5974 88.0049 22.5974C87.9929 22.4185 87.975 22.259 87.975 22.0995C87.975 16.8502 87.981 11.6009 87.957 6.35162C87.957 5.9021 88.1066 5.79575 88.6392 5.81508C89.6205 5.84892 90.6676 5.65558 91.3138 6.51113C91.3497 6.54979 91.3975 6.57879 91.4334 6.61263C91.4753 6.64646 91.5172 6.68031 91.5531 6.71414L91.5471 6.70931C91.595 6.73831 91.6369 6.77214 91.6728 6.81565L91.6668 6.81081C91.7207 6.83981 91.7625 6.87365 91.7925 6.91715L91.7865 6.91232C91.8463 6.93649 91.8822 6.97515 91.9181 7.02349L91.9121 7.01866C91.954 7.0525 91.9899 7.08633 92.0318 7.12017C92.0737 7.15883 92.1096 7.19267 92.1515 7.22651Z" fill="#1A88E1"/>
</svg>

